<svg xmlns="http://www.w3.org/2000/svg" width="950" height="440" viewBox="0 0 950 440" font-family="system-ui, sans-serif">
<rect width="950" height="440" fill="#fbfbfa"/>
<text x="95" y="14" font-size="11" fill="#888" text-anchor="middle">0%</text>
<text x="285" y="14" font-size="11" fill="#888" text-anchor="middle">25%</text>
<text x="475" y="14" font-size="11" fill="#888" text-anchor="middle">50%</text>
<text x="665" y="14" font-size="11" fill="#888" text-anchor="middle">75%</text>
<text x="855" y="14" font-size="11" fill="#888" text-anchor="middle">100%</text>
<text x="8" y="33" font-size="12" fill="#444">A · lerp</text>
<g transform="translate(0, 40)">
<polygon points="172.9,92.0 96.4,136.2 96.4,92.0" fill="#efe8d8" stroke="#8d8d8d" stroke-width="0.5"/><polygon points="96.4,136.2 19.9,92.0 96.4,92.0" fill="#efe8d8" stroke="#8d8d8d" stroke-width="0.5"/><polygon points="96.4,47.8 172.9,92.0 96.4,92.0" fill="#efe8d8" stroke="#8d8d8d" stroke-width="0.5"/><polygon points="19.9,92.0 96.4,47.8 96.4,92.0" fill="#efe8d8" stroke="#8d8d8d" stroke-width="0.5"/><line x1="96.4" y1="47.8" x2="96.4" y2="92.0" stroke="#1f5fd0" stroke-width="1.6"/><line x1="96.4" y1="92.0" x2="96.4" y2="136.2" stroke="#1f5fd0" stroke-width="1.6"/>
</g>
<g transform="translate(190, 40)">
<polygon points="163.3,92.0 96.4,136.2 96.4,92.0" fill="#efe8d8" stroke="#8d8d8d" stroke-width="0.5"/><polygon points="96.4,136.2 19.9,92.0 96.4,92.0" fill="#efe8d8" stroke="#8d8d8d" stroke-width="0.5"/><polygon points="96.4,47.8 163.3,92.0 96.4,92.0" fill="#efe8d8" stroke="#8d8d8d" stroke-width="0.5"/><polygon points="19.9,92.0 96.4,47.8 96.4,92.0" fill="#efe8d8" stroke="#8d8d8d" stroke-width="0.5"/><line x1="96.4" y1="47.8" x2="96.4" y2="92.0" stroke="#1f5fd0" stroke-width="1.6"/><line x1="96.4" y1="92.0" x2="96.4" y2="136.2" stroke="#1f5fd0" stroke-width="1.6"/>
</g>
<g transform="translate(380, 40)">
<polygon points="96.4,92.0 96.4,136.2 96.4,92.0" fill="#e0b36a" stroke="#8d8d8d" stroke-width="0.5"/><polygon points="96.4,136.2 19.9,92.0 96.4,92.0" fill="#efe8d8" stroke="#8d8d8d" stroke-width="0.5"/><polygon points="96.4,47.8 96.4,92.0 96.4,92.0" fill="#e0b36a" stroke="#8d8d8d" stroke-width="0.5"/><polygon points="19.9,92.0 96.4,47.8 96.4,92.0" fill="#efe8d8" stroke="#8d8d8d" stroke-width="0.5"/><line x1="96.4" y1="47.8" x2="96.4" y2="92.0" stroke="#1f5fd0" stroke-width="1.6"/><line x1="96.4" y1="92.0" x2="96.4" y2="136.2" stroke="#1f5fd0" stroke-width="1.6"/>
</g>
<g transform="translate(570, 40)">
<polygon points="29.4,92.0 96.4,136.2 96.4,92.0" fill="#e0b36a" stroke="#8d8d8d" stroke-width="0.5"/><polygon points="96.4,136.2 19.9,92.0 96.4,92.0" fill="#efe8d8" stroke="#8d8d8d" stroke-width="0.5"/><polygon points="96.4,47.8 29.4,92.0 96.4,92.0" fill="#e0b36a" stroke="#8d8d8d" stroke-width="0.5"/><polygon points="19.9,92.0 96.4,47.8 96.4,92.0" fill="#efe8d8" stroke="#8d8d8d" stroke-width="0.5"/><line x1="96.4" y1="47.8" x2="96.4" y2="92.0" stroke="#1f5fd0" stroke-width="1.6"/><line x1="96.4" y1="92.0" x2="96.4" y2="136.2" stroke="#1f5fd0" stroke-width="1.6"/>
</g>
<g transform="translate(760, 40)">
<polygon points="19.9,92.0 96.4,136.2 96.4,92.0" fill="#e0b36a" stroke="#8d8d8d" stroke-width="0.5"/><polygon points="96.4,136.2 19.9,92.0 96.4,92.0" fill="#efe8d8" stroke="#8d8d8d" stroke-width="0.5"/><polygon points="96.4,47.8 19.9,92.0 96.4,92.0" fill="#e0b36a" stroke="#8d8d8d" stroke-width="0.5"/><polygon points="19.9,92.0 96.4,47.8 96.4,92.0" fill="#efe8d8" stroke="#8d8d8d" stroke-width="0.5"/><line x1="96.4" y1="47.8" x2="96.4" y2="92.0" stroke="#1f5fd0" stroke-width="1.6"/><line x1="96.4" y1="92.0" x2="96.4" y2="136.2" stroke="#1f5fd0" stroke-width="1.6"/>
</g>
<text x="8" y="243" font-size="12" fill="#444">B · solver</text>
<g transform="translate(0, 250)">
<polygon points="172.9,92.0 96.4,136.2 96.4,92.0" fill="#efe8d8" stroke="#8d8d8d" stroke-width="0.5"/><polygon points="96.4,136.2 19.9,92.0 96.4,92.0" fill="#efe8d8" stroke="#8d8d8d" stroke-width="0.5"/><polygon points="96.4,47.8 172.9,92.0 96.4,92.0" fill="#efe8d8" stroke="#8d8d8d" stroke-width="0.5"/><polygon points="19.9,92.0 96.4,47.8 96.4,92.0" fill="#efe8d8" stroke="#8d8d8d" stroke-width="0.5"/><line x1="96.4" y1="47.8" x2="96.4" y2="92.0" stroke="#1f5fd0" stroke-width="1.6"/><line x1="96.4" y1="92.0" x2="96.4" y2="136.2" stroke="#1f5fd0" stroke-width="1.6"/>
</g>
<g transform="translate(190, 250)">
<polygon points="168.0,85.2 92.7,139.8 92.7,96.7" fill="#efe8d8" stroke="#8d8d8d" stroke-width="0.5"/><polygon points="92.7,139.8 17.1,86.9 92.7,96.7" fill="#efe8d8" stroke="#8d8d8d" stroke-width="0.5"/><polygon points="92.7,51.4 168.0,85.2 92.7,96.7" fill="#efe8d8" stroke="#8d8d8d" stroke-width="0.5"/><polygon points="17.1,86.9 92.7,51.4 92.7,96.7" fill="#efe8d8" stroke="#8d8d8d" stroke-width="0.5"/><line x1="92.7" y1="51.4" x2="92.7" y2="96.7" stroke="#1f5fd0" stroke-width="1.6"/><line x1="92.7" y1="96.7" x2="92.7" y2="139.8" stroke="#1f5fd0" stroke-width="1.6"/>
</g>
<g transform="translate(380, 250)">
<polygon points="43.4,55.8 99.3,142.2 100.1,98.1" fill="#e0b36a" stroke="#8d8d8d" stroke-width="0.5"/><polygon points="99.3,142.2 24.8,110.2 100.1,98.1" fill="#efe8d8" stroke="#8d8d8d" stroke-width="0.5"/><polygon points="99.3,53.6 43.4,55.8 100.1,98.1" fill="#e0b36a" stroke="#8d8d8d" stroke-width="0.5"/><polygon points="24.8,110.2 99.3,53.6 100.1,98.1" fill="#efe8d8" stroke="#8d8d8d" stroke-width="0.5"/><line x1="99.3" y1="53.6" x2="100.1" y2="98.1" stroke="#1f5fd0" stroke-width="1.6"/><line x1="100.1" y1="98.1" x2="99.3" y2="142.2" stroke="#1f5fd0" stroke-width="1.6"/>
</g>
<g transform="translate(570, 250)">
<polygon points="20.0,91.3 96.5,136.2 96.5,92.0" fill="#e0b36a" stroke="#8d8d8d" stroke-width="0.5"/><polygon points="96.5,136.2 20.0,92.7 96.5,92.0" fill="#efe8d8" stroke="#8d8d8d" stroke-width="0.5"/><polygon points="96.5,47.8 20.0,91.3 96.5,92.0" fill="#e0b36a" stroke="#8d8d8d" stroke-width="0.5"/><polygon points="20.0,92.7 96.5,47.8 96.5,92.0" fill="#efe8d8" stroke="#8d8d8d" stroke-width="0.5"/><line x1="96.5" y1="47.8" x2="96.5" y2="92.0" stroke="#1f5fd0" stroke-width="1.6"/><line x1="96.5" y1="92.0" x2="96.5" y2="136.2" stroke="#1f5fd0" stroke-width="1.6"/>
</g>
<g transform="translate(760, 250)">
<polygon points="19.9,92.0 96.4,136.2 96.4,92.0" fill="#e0b36a" stroke="#8d8d8d" stroke-width="0.5"/><polygon points="96.4,136.2 19.9,92.0 96.4,92.0" fill="#efe8d8" stroke="#8d8d8d" stroke-width="0.5"/><polygon points="96.4,47.8 19.9,92.0 96.4,92.0" fill="#e0b36a" stroke="#8d8d8d" stroke-width="0.5"/><polygon points="19.9,92.0 96.4,47.8 96.4,92.0" fill="#efe8d8" stroke="#8d8d8d" stroke-width="0.5"/><line x1="96.4" y1="47.8" x2="96.4" y2="92.0" stroke="#1f5fd0" stroke-width="1.6"/><line x1="96.4" y1="92.0" x2="96.4" y2="136.2" stroke="#1f5fd0" stroke-width="1.6"/>
</g>
</svg>