<svg xmlns="http://www.w3.org/2000/svg" width="950" height="440" viewBox="0 0 950 440" font-family="system-ui, sans-serif">
<rect width="950" height="440" fill="#fbfbfa"/>
<text x="95" y="14" font-size="11" fill="#888" text-anchor="middle">0%</text>
<text x="285" y="14" font-size="11" fill="#888" text-anchor="middle">25%</text>
<text x="475" y="14" font-size="11" fill="#888" text-anchor="middle">50%</text>
<text x="665" y="14" font-size="11" fill="#888" text-anchor="middle">75%</text>
<text x="855" y="14" font-size="11" fill="#888" text-anchor="middle">100%</text>
<text x="8" y="33" font-size="12" fill="#444">A · lerp</text>
<g transform="translate(0, 40)">
<polygon points="95.0,44.5 146.9,95.7 95.0,153.1" fill="#efe8d8" stroke="#8d8d8d" stroke-width="0.5"/><polygon points="95.0,44.5 95.0,153.1 43.1,95.7" fill="#efe8d8" stroke="#8d8d8d" stroke-width="0.5"/><polygon points="95.0,44.5 43.1,95.7 17.1,108.1" fill="#efe8d8" stroke="#8d8d8d" stroke-width="0.5"/><polygon points="95.0,44.5 172.9,108.1 146.9,95.7" fill="#efe8d8" stroke="#8d8d8d" stroke-width="0.5"/><polygon points="95.0,44.5 17.1,108.1 43.1,35.7" fill="#efe8d8" stroke="#8d8d8d" stroke-width="0.5"/><polygon points="95.0,44.5 146.9,35.7 172.9,108.1" fill="#efe8d8" stroke="#8d8d8d" stroke-width="0.5"/><polygon points="95.0,44.5 43.1,35.7 95.0,63.1" fill="#e0b36a" stroke="#8d8d8d" stroke-width="0.5"/><polygon points="95.0,44.5 95.0,63.1 146.9,35.7" fill="#e0b36a" stroke="#8d8d8d" stroke-width="0.5"/><line x1="95.0" y1="44.5" x2="95.0" y2="153.1" stroke="#1f5fd0" stroke-width="1.6"/><line x1="95.0" y1="44.5" x2="17.1" y2="108.1" stroke="#1f5fd0" stroke-width="1.6"/><line x1="95.0" y1="44.5" x2="95.0" y2="63.1" stroke="#1f5fd0" stroke-width="1.6"/><line x1="95.0" y1="44.5" x2="172.9" y2="108.1" stroke="#1f5fd0" stroke-width="1.6"/><line x1="95.0" y1="44.5" x2="146.9" y2="95.7" stroke="#d2262c" stroke-width="1.6"/><line x1="95.0" y1="44.5" x2="43.1" y2="95.7" stroke="#d2262c" stroke-width="1.6"/><line x1="95.0" y1="44.5" x2="43.1" y2="35.7" stroke="#d2262c" stroke-width="1.6"/><line x1="95.0" y1="44.5" x2="146.9" y2="35.7" stroke="#d2262c" stroke-width="1.6"/>
</g>
<g transform="translate(190, 40)">
<polygon points="95.0,44.5 146.1,96.7 95.0,151.9" fill="#efe8d8" stroke="#8d8d8d" stroke-width="0.5"/><polygon points="95.0,44.5 95.0,151.9 43.9,96.7" fill="#efe8d8" stroke="#8d8d8d" stroke-width="0.5"/><polygon points="95.0,44.5 43.9,96.7 22.0,109.8" fill="#efe8d8" stroke="#8d8d8d" stroke-width="0.5"/><polygon points="95.0,44.5 168.0,109.8 146.1,96.7" fill="#efe8d8" stroke="#8d8d8d" stroke-width="0.5"/><polygon points="95.0,44.5 22.0,109.8 43.9,37.7" fill="#efe8d8" stroke="#8d8d8d" stroke-width="0.5"/><polygon points="95.0,44.5 146.1,37.7 168.0,109.8" fill="#efe8d8" stroke="#8d8d8d" stroke-width="0.5"/><polygon points="95.0,44.5 43.9,37.7 95.0,67.6" fill="#e0b36a" stroke="#8d8d8d" stroke-width="0.5"/><polygon points="95.0,44.5 95.0,67.6 146.1,37.7" fill="#e0b36a" stroke="#8d8d8d" stroke-width="0.5"/><line x1="95.0" y1="44.5" x2="95.0" y2="151.9" stroke="#1f5fd0" stroke-width="1.6"/><line x1="95.0" y1="44.5" x2="22.0" y2="109.8" stroke="#1f5fd0" stroke-width="1.6"/><line x1="95.0" y1="44.5" x2="95.0" y2="67.6" stroke="#1f5fd0" stroke-width="1.6"/><line x1="95.0" y1="44.5" x2="168.0" y2="109.8" stroke="#1f5fd0" stroke-width="1.6"/><line x1="95.0" y1="44.5" x2="146.1" y2="96.7" stroke="#d2262c" stroke-width="1.6"/><line x1="95.0" y1="44.5" x2="43.9" y2="96.7" stroke="#d2262c" stroke-width="1.6"/><line x1="95.0" y1="44.5" x2="43.9" y2="37.7" stroke="#d2262c" stroke-width="1.6"/><line x1="95.0" y1="44.5" x2="146.1" y2="37.7" stroke="#d2262c" stroke-width="1.6"/>
</g>
<g transform="translate(380, 40)">
<polygon points="95.0,44.5 140.4,103.8 95.0,143.8" fill="#efe8d8" stroke="#8d8d8d" stroke-width="0.5"/><polygon points="95.0,44.5 95.0,143.8 49.6,103.8" fill="#efe8d8" stroke="#8d8d8d" stroke-width="0.5"/><polygon points="95.0,44.5 49.6,103.8 56.1,121.3" fill="#e0b36a" stroke="#8d8d8d" stroke-width="0.5"/><polygon points="95.0,44.5 133.9,121.3 140.4,103.8" fill="#e0b36a" stroke="#8d8d8d" stroke-width="0.5"/><polygon points="95.0,44.5 56.1,121.3 49.6,51.4" fill="#efe8d8" stroke="#8d8d8d" stroke-width="0.5"/><polygon points="95.0,44.5 140.4,51.4 133.9,121.3" fill="#efe8d8" stroke="#8d8d8d" stroke-width="0.5"/><polygon points="95.0,44.5 49.6,51.4 95.0,98.8" fill="#e0b36a" stroke="#8d8d8d" stroke-width="0.5"/><polygon points="95.0,44.5 95.0,98.8 140.4,51.4" fill="#e0b36a" stroke="#8d8d8d" stroke-width="0.5"/><line x1="95.0" y1="44.5" x2="95.0" y2="143.8" stroke="#1f5fd0" stroke-width="1.6"/><line x1="95.0" y1="44.5" x2="56.1" y2="121.3" stroke="#1f5fd0" stroke-width="1.6"/><line x1="95.0" y1="44.5" x2="95.0" y2="98.8" stroke="#1f5fd0" stroke-width="1.6"/><line x1="95.0" y1="44.5" x2="133.9" y2="121.3" stroke="#1f5fd0" stroke-width="1.6"/><line x1="95.0" y1="44.5" x2="140.4" y2="103.8" stroke="#d2262c" stroke-width="1.6"/><line x1="95.0" y1="44.5" x2="49.6" y2="103.8" stroke="#d2262c" stroke-width="1.6"/><line x1="95.0" y1="44.5" x2="49.6" y2="51.4" stroke="#d2262c" stroke-width="1.6"/><line x1="95.0" y1="44.5" x2="140.4" y2="51.4" stroke="#d2262c" stroke-width="1.6"/>
</g>
<g transform="translate(570, 40)">
<polygon points="95.0,44.5 134.8,111.0 95.0,135.6" fill="#efe8d8" stroke="#8d8d8d" stroke-width="0.5"/><polygon points="95.0,44.5 95.0,135.6 55.2,111.0" fill="#efe8d8" stroke="#8d8d8d" stroke-width="0.5"/><polygon points="95.0,44.5 55.2,111.0 90.1,132.8" fill="#e0b36a" stroke="#8d8d8d" stroke-width="0.5"/><polygon points="95.0,44.5 99.9,132.8 134.8,111.0" fill="#e0b36a" stroke="#8d8d8d" stroke-width="0.5"/><polygon points="95.0,44.5 90.1,132.8 55.2,65.0" fill="#efe8d8" stroke="#8d8d8d" stroke-width="0.5"/><polygon points="95.0,44.5 134.8,65.0 99.9,132.8" fill="#efe8d8" stroke="#8d8d8d" stroke-width="0.5"/><polygon points="95.0,44.5 55.2,65.0 95.0,130.0" fill="#e0b36a" stroke="#8d8d8d" stroke-width="0.5"/><polygon points="95.0,44.5 95.0,130.0 134.8,65.0" fill="#e0b36a" stroke="#8d8d8d" stroke-width="0.5"/><line x1="95.0" y1="44.5" x2="95.0" y2="135.6" stroke="#1f5fd0" stroke-width="1.6"/><line x1="95.0" y1="44.5" x2="90.1" y2="132.8" stroke="#1f5fd0" stroke-width="1.6"/><line x1="95.0" y1="44.5" x2="95.0" y2="130.0" stroke="#1f5fd0" stroke-width="1.6"/><line x1="95.0" y1="44.5" x2="99.9" y2="132.8" stroke="#1f5fd0" stroke-width="1.6"/><line x1="95.0" y1="44.5" x2="134.8" y2="111.0" stroke="#d2262c" stroke-width="1.6"/><line x1="95.0" y1="44.5" x2="55.2" y2="111.0" stroke="#d2262c" stroke-width="1.6"/><line x1="95.0" y1="44.5" x2="55.2" y2="65.0" stroke="#d2262c" stroke-width="1.6"/><line x1="95.0" y1="44.5" x2="134.8" y2="65.0" stroke="#d2262c" stroke-width="1.6"/>
</g>
<g transform="translate(760, 40)">
<polygon points="95.0,44.5 133.9,112.0 95.0,134.5" fill="#efe8d8" stroke="#8d8d8d" stroke-width="0.5"/><polygon points="95.0,44.5 95.0,134.5 56.1,112.0" fill="#efe8d8" stroke="#8d8d8d" stroke-width="0.5"/><polygon points="95.0,44.5 56.1,112.0 95.0,134.5" fill="#e0b36a" stroke="#8d8d8d" stroke-width="0.5"/><polygon points="95.0,44.5 95.0,134.5 133.9,112.0" fill="#e0b36a" stroke="#8d8d8d" stroke-width="0.5"/><polygon points="95.0,44.5 95.0,134.5 56.1,67.0" fill="#efe8d8" stroke="#8d8d8d" stroke-width="0.5"/><polygon points="95.0,44.5 56.1,67.0 95.0,134.5" fill="#e0b36a" stroke="#8d8d8d" stroke-width="0.5"/><polygon points="95.0,44.5 95.0,134.5 133.9,67.0" fill="#e0b36a" stroke="#8d8d8d" stroke-width="0.5"/><polygon points="95.0,44.5 133.9,67.0 95.0,134.5" fill="#efe8d8" stroke="#8d8d8d" stroke-width="0.5"/><line x1="95.0" y1="44.5" x2="95.0" y2="134.5" stroke="#1f5fd0" stroke-width="1.6"/><line x1="95.0" y1="44.5" x2="95.0" y2="134.5" stroke="#1f5fd0" stroke-width="1.6"/><line x1="95.0" y1="44.5" x2="95.0" y2="134.5" stroke="#1f5fd0" stroke-width="1.6"/><line x1="95.0" y1="44.5" x2="95.0" y2="134.5" stroke="#1f5fd0" stroke-width="1.6"/><line x1="95.0" y1="44.5" x2="133.9" y2="112.0" stroke="#d2262c" stroke-width="1.6"/><line x1="95.0" y1="44.5" x2="56.1" y2="112.0" stroke="#d2262c" stroke-width="1.6"/><line x1="95.0" y1="44.5" x2="56.1" y2="67.0" stroke="#d2262c" stroke-width="1.6"/><line x1="95.0" y1="44.5" x2="133.9" y2="67.0" stroke="#d2262c" stroke-width="1.6"/>
</g>
<text x="8" y="243" font-size="12" fill="#444">B · solver</text>
<g transform="translate(0, 250)">
<polygon points="95.0,44.5 146.9,95.7 95.0,153.1" fill="#efe8d8" stroke="#8d8d8d" stroke-width="0.5"/><polygon points="95.0,44.5 95.0,153.1 43.1,95.7" fill="#efe8d8" stroke="#8d8d8d" stroke-width="0.5"/><polygon points="95.0,44.5 43.1,95.7 17.1,108.1" fill="#efe8d8" stroke="#8d8d8d" stroke-width="0.5"/><polygon points="95.0,44.5 172.9,108.1 146.9,95.7" fill="#efe8d8" stroke="#8d8d8d" stroke-width="0.5"/><polygon points="95.0,44.5 17.1,108.1 43.1,35.7" fill="#efe8d8" stroke="#8d8d8d" stroke-width="0.5"/><polygon points="95.0,44.5 146.9,35.7 172.9,108.1" fill="#efe8d8" stroke="#8d8d8d" stroke-width="0.5"/><polygon points="95.0,44.5 43.1,35.7 95.0,63.1" fill="#e0b36a" stroke="#8d8d8d" stroke-width="0.5"/><polygon points="95.0,44.5 95.0,63.1 146.9,35.7" fill="#e0b36a" stroke="#8d8d8d" stroke-width="0.5"/><line x1="95.0" y1="44.5" x2="95.0" y2="153.1" stroke="#1f5fd0" stroke-width="1.6"/><line x1="95.0" y1="44.5" x2="17.1" y2="108.1" stroke="#1f5fd0" stroke-width="1.6"/><line x1="95.0" y1="44.5" x2="95.0" y2="63.1" stroke="#1f5fd0" stroke-width="1.6"/><line x1="95.0" y1="44.5" x2="172.9" y2="108.1" stroke="#1f5fd0" stroke-width="1.6"/><line x1="95.0" y1="44.5" x2="146.9" y2="95.7" stroke="#d2262c" stroke-width="1.6"/><line x1="95.0" y1="44.5" x2="43.1" y2="95.7" stroke="#d2262c" stroke-width="1.6"/><line x1="95.0" y1="44.5" x2="43.1" y2="35.7" stroke="#d2262c" stroke-width="1.6"/><line x1="95.0" y1="44.5" x2="146.9" y2="35.7" stroke="#d2262c" stroke-width="1.6"/>
</g>
<g transform="translate(190, 250)">
<polygon points="95.0,45.1 95.0,154.3 43.4,97.3" fill="#efe8d8" stroke="#8d8d8d" stroke-width="0.5"/><polygon points="95.0,45.1 146.6,97.3 95.0,154.3" fill="#efe8d8" stroke="#8d8d8d" stroke-width="0.5"/><polygon points="95.0,45.1 43.4,97.3 22.3,112.3" fill="#efe8d8" stroke="#8d8d8d" stroke-width="0.5"/><polygon points="95.0,45.1 167.7,112.3 146.6,97.3" fill="#efe8d8" stroke="#8d8d8d" stroke-width="0.5"/><polygon points="95.0,45.1 22.3,112.3 43.4,37.8" fill="#efe8d8" stroke="#8d8d8d" stroke-width="0.5"/><polygon points="95.0,45.1 146.6,37.8 167.7,112.3" fill="#efe8d8" stroke="#8d8d8d" stroke-width="0.5"/><polygon points="95.0,45.1 43.4,37.8 95.0,70.3" fill="#e0b36a" stroke="#8d8d8d" stroke-width="0.5"/><polygon points="95.0,45.1 95.0,70.3 146.6,37.8" fill="#e0b36a" stroke="#8d8d8d" stroke-width="0.5"/><line x1="95.0" y1="45.1" x2="95.0" y2="154.3" stroke="#1f5fd0" stroke-width="1.6"/><line x1="95.0" y1="45.1" x2="22.3" y2="112.3" stroke="#1f5fd0" stroke-width="1.6"/><line x1="95.0" y1="45.1" x2="95.0" y2="70.3" stroke="#1f5fd0" stroke-width="1.6"/><line x1="95.0" y1="45.1" x2="167.7" y2="112.3" stroke="#1f5fd0" stroke-width="1.6"/><line x1="95.0" y1="45.1" x2="146.6" y2="97.3" stroke="#d2262c" stroke-width="1.6"/><line x1="95.0" y1="45.1" x2="43.4" y2="97.3" stroke="#d2262c" stroke-width="1.6"/><line x1="95.0" y1="45.1" x2="43.4" y2="37.8" stroke="#d2262c" stroke-width="1.6"/><line x1="95.0" y1="45.1" x2="146.6" y2="37.8" stroke="#d2262c" stroke-width="1.6"/>
</g>
<g transform="translate(380, 250)">
<polygon points="95.0,45.3 141.1,107.0 95.0,149.4" fill="#efe8d8" stroke="#8d8d8d" stroke-width="0.5"/><polygon points="95.0,45.3 95.0,149.4 48.9,107.0" fill="#efe8d8" stroke="#8d8d8d" stroke-width="0.5"/><polygon points="95.0,45.3 48.9,107.0 63.0,130.9" fill="#e0b36a" stroke="#8d8d8d" stroke-width="0.5"/><polygon points="95.0,45.3 127.0,130.9 141.1,107.0" fill="#e0b36a" stroke="#8d8d8d" stroke-width="0.5"/><polygon points="95.0,45.3 63.0,130.9 48.9,53.8" fill="#efe8d8" stroke="#8d8d8d" stroke-width="0.5"/><polygon points="95.0,45.3 141.1,53.8 127.0,130.9" fill="#efe8d8" stroke="#8d8d8d" stroke-width="0.5"/><polygon points="95.0,45.3 48.9,53.8 95.0,112.4" fill="#e0b36a" stroke="#8d8d8d" stroke-width="0.5"/><polygon points="95.0,45.3 95.0,112.4 141.1,53.8" fill="#e0b36a" stroke="#8d8d8d" stroke-width="0.5"/><line x1="95.0" y1="45.3" x2="95.0" y2="149.4" stroke="#1f5fd0" stroke-width="1.6"/><line x1="95.0" y1="45.3" x2="63.0" y2="130.9" stroke="#1f5fd0" stroke-width="1.6"/><line x1="95.0" y1="45.3" x2="95.0" y2="112.4" stroke="#1f5fd0" stroke-width="1.6"/><line x1="95.0" y1="45.3" x2="127.0" y2="130.9" stroke="#1f5fd0" stroke-width="1.6"/><line x1="95.0" y1="45.3" x2="141.1" y2="107.0" stroke="#d2262c" stroke-width="1.6"/><line x1="95.0" y1="45.3" x2="48.9" y2="107.0" stroke="#d2262c" stroke-width="1.6"/><line x1="95.0" y1="45.3" x2="48.9" y2="53.8" stroke="#d2262c" stroke-width="1.6"/><line x1="95.0" y1="45.3" x2="141.1" y2="53.8" stroke="#d2262c" stroke-width="1.6"/>
</g>
<g transform="translate(570, 250)">
<polygon points="95.0,44.7 95.0,135.8 55.5,111.9" fill="#efe8d8" stroke="#8d8d8d" stroke-width="0.5"/><polygon points="95.0,44.7 134.5,111.9 95.0,135.8" fill="#efe8d8" stroke="#8d8d8d" stroke-width="0.5"/><polygon points="95.0,44.7 55.5,111.9 93.0,134.7" fill="#e0b36a" stroke="#8d8d8d" stroke-width="0.5"/><polygon points="95.0,44.7 97.0,134.7 134.5,111.9" fill="#e0b36a" stroke="#8d8d8d" stroke-width="0.5"/><polygon points="95.0,44.7 93.0,134.7 55.5,66.3" fill="#efe8d8" stroke="#8d8d8d" stroke-width="0.5"/><polygon points="95.0,44.7 134.5,66.3 97.0,134.7" fill="#efe8d8" stroke="#8d8d8d" stroke-width="0.5"/><polygon points="95.0,44.7 55.5,66.3 95.0,133.5" fill="#e0b36a" stroke="#8d8d8d" stroke-width="0.5"/><polygon points="95.0,44.7 95.0,133.5 134.5,66.3" fill="#e0b36a" stroke="#8d8d8d" stroke-width="0.5"/><line x1="95.0" y1="44.7" x2="95.0" y2="135.8" stroke="#1f5fd0" stroke-width="1.6"/><line x1="95.0" y1="44.7" x2="93.0" y2="134.7" stroke="#1f5fd0" stroke-width="1.6"/><line x1="95.0" y1="44.7" x2="95.0" y2="133.5" stroke="#1f5fd0" stroke-width="1.6"/><line x1="95.0" y1="44.7" x2="97.0" y2="134.7" stroke="#1f5fd0" stroke-width="1.6"/><line x1="95.0" y1="44.7" x2="134.5" y2="111.9" stroke="#d2262c" stroke-width="1.6"/><line x1="95.0" y1="44.7" x2="55.5" y2="111.9" stroke="#d2262c" stroke-width="1.6"/><line x1="95.0" y1="44.7" x2="55.5" y2="66.3" stroke="#d2262c" stroke-width="1.6"/><line x1="95.0" y1="44.7" x2="134.5" y2="66.3" stroke="#d2262c" stroke-width="1.6"/>
</g>
<g transform="translate(760, 250)">
<polygon points="95.0,44.5 133.9,112.0 95.0,134.5" fill="#efe8d8" stroke="#8d8d8d" stroke-width="0.5"/><polygon points="95.0,44.5 95.0,134.5 56.1,112.0" fill="#efe8d8" stroke="#8d8d8d" stroke-width="0.5"/><polygon points="95.0,44.5 56.1,112.0 95.0,134.5" fill="#e0b36a" stroke="#8d8d8d" stroke-width="0.5"/><polygon points="95.0,44.5 95.0,134.5 133.9,112.0" fill="#e0b36a" stroke="#8d8d8d" stroke-width="0.5"/><polygon points="95.0,44.5 95.0,134.5 56.1,67.0" fill="#efe8d8" stroke="#8d8d8d" stroke-width="0.5"/><polygon points="95.0,44.5 56.1,67.0 95.0,134.5" fill="#e0b36a" stroke="#8d8d8d" stroke-width="0.5"/><polygon points="95.0,44.5 95.0,134.5 133.9,67.0" fill="#e0b36a" stroke="#8d8d8d" stroke-width="0.5"/><polygon points="95.0,44.5 133.9,67.0 95.0,134.5" fill="#efe8d8" stroke="#8d8d8d" stroke-width="0.5"/><line x1="95.0" y1="44.5" x2="95.0" y2="134.5" stroke="#1f5fd0" stroke-width="1.6"/><line x1="95.0" y1="44.5" x2="95.0" y2="134.5" stroke="#1f5fd0" stroke-width="1.6"/><line x1="95.0" y1="44.5" x2="95.0" y2="134.5" stroke="#1f5fd0" stroke-width="1.6"/><line x1="95.0" y1="44.5" x2="95.0" y2="134.5" stroke="#1f5fd0" stroke-width="1.6"/><line x1="95.0" y1="44.5" x2="133.9" y2="112.0" stroke="#d2262c" stroke-width="1.6"/><line x1="95.0" y1="44.5" x2="56.1" y2="112.0" stroke="#d2262c" stroke-width="1.6"/><line x1="95.0" y1="44.5" x2="56.1" y2="67.0" stroke="#d2262c" stroke-width="1.6"/><line x1="95.0" y1="44.5" x2="133.9" y2="67.0" stroke="#d2262c" stroke-width="1.6"/>
</g>
</svg>